#!OML:ASF I:\Actors\actors\Patient Classification 2\Patient 1\Session 1\actor1.ASF
:FULLY-SPECIFIED
:DEGREES
547
root -0.70417 18.706 5.70862 3.00365 -3.49535 -1.72184
lowerback 2.13194 1.35648 -0.162333
upperback -1.95669 1.81664 0.395048
thorax -3.22265 0.9141 0.407654
lowerneck -8.31268 -2.50476 -0.539786
upperneck 23.3332 -4.28934 3.69618
head 8.73019 -1.69969 0.91258
rclavicle -7.072e-015 1.09332e-015
rhumerus -29.7891 40.3474 -80.1333
rradius 118.335
rwrist -27.6107
rhand -6.69261 -36.3055
rfingers 7.12502
rthumb 19.1664 -65.3811
lclavicle -7.072e-015 1.09332e-015
lhumerus -29.834 -42.0297 88.5316
lradius 118.326
lwrist 46.1309
lhand -21.3549 -25.4139
lfingers 7.12502
lthumb 5.03172 4.5064
rfemur 0 0 0
rtibia 0
rfoot 0 0
rtoes 0
lfemur -4.63233 -7.70795 -12.9031
ltibia 21.0752
lfoot -25.5856 17.8371
ltoes -53.6239
548
root -0.705154 18.7058 5.70778 2.96857 -3.48435 -1.72482
lowerback 2.09655 1.35276 -0.163598
upperback -1.92676 1.81162 0.400185
thorax -3.17196 0.911645 0.415253
lowerneck -8.31639 -2.55474 -0.629088
upperneck 23.5837 -4.36606 3.73967
head 8.82195 -1.7349 0.934731
rclavicle 3.77623e-015 1.19271e-014
rhumerus -29.6142 40.3442 -80.0252
rradius 118.462
rwrist -27.6197
rhand -6.86055 -36.1362
rfingers 7.12502
rthumb 19.0049 -65.2277
lclavicle 3.77623e-015 1.19271e-014
lhumerus -29.7662 -41.9738 88.4387
lradius 118.447
lwrist 45.6683
lhand -21.3413 -25.6991
lfingers 7.12502
lthumb 5.04478 4.22085
rfemur 0 0 0
rtibia 0
rfoot 0 0
rtoes 0
lfemur -4.58898 -7.77568 -12.9039
ltibia 21.07
lfoot -25.6717 17.8204
ltoes -53.5091
549
root -0.706279 18.7064 5.7067 2.96299 -3.47713 -1.73084
lowerback 2.02586 1.3385 -0.0875406
upperback -1.88575 1.79343 0.346254
thorax -3.08546 0.900184 0.320679
lowerneck -8.36335 -2.5841 -0.61827
upperneck 23.8047 -4.42824 3.77221
head 8.90938 -1.75557 0.937098
rclavicle -5.78735e-015 1.20265e-014
rhumerus -29.4627 40.3211 -80.0304
rradius 118.673
rwrist -27.5275
rhand -7.01801 -36.3135
rfingers 7.12502
rthumb 18.8535 -65.4199
lclavicle -5.78735e-015 1.20265e-014
lhumerus -29.5763 -41.8713 88.1637
lradius 118.581
lwrist 45.0944
lhand -21.3088 -25.7694
lfingers 7.12502
lthumb 5.07614 4.14981
rfemur 0 0 0
rtibia 0
rfoot 0 0
rtoes 0
lfemur -4.58283 -7.81457 -12.89
ltibia 21.0524
lfoot -25.7029 17.7709
ltoes -53.3584
550
root -0.706472 18.7058 5.70692 2.96285 -3.47776 -1.70418
lowerback 1.9778 1.33493 -0.0771803
upperback -1.8729 1.7879 0.310444
thorax -3.04358 0.896787 0.279827
lowerneck -8.32396 -2.62177 -0.567286
upperneck 23.9587 -4.4866 3.72653
head 8.95463 -1.78114 0.907626
rclavicle -1.82963e-017 -4.57205e-015
rhumerus -29.4315 40.2975 -80.0561
rradius 118.933
rwrist -27.436
rhand -7.1381 -36.2506
rfingers 7.12502
rthumb 18.738 -65.3681
lclavicle -1.82963e-017 -4.57205e-015
lhumerus -29.4611 -41.7769 88.0139
lradius 118.761
lwrist 44.9241
lhand -21.0824 -25.8471
lfingers 7.12502
lthumb 5.29475 4.06677
rfemur 0 0 0
rtibia 0
rfoot 0 0
rtoes 0
lfemur -4.5745 -7.80651 -12.9203
ltibia 21.0287
lfoot -25.678 17.7601
ltoes -53.3505
551
root -0.707077 18.7051 5.70666 2.95722 -3.47412 -1.66018
lowerback 1.97 1.33599 -0.115704
upperback -1.87226 1.78745 0.290476
thorax -3.03906 0.897174 0.281111
lowerneck -8.22678 -2.65727 -0.548766
upperneck 24.0344 -4.53374 3.68962
head 8.9625 -1.80552 0.888542
rclavicle 2.65818e-014 -7.95139e-015
rhumerus -29.4756 40.2754 -80.1123
rradius 119.254
rwrist -27.3698
rhand -7.41735 -36.0456
rfingers 7.12502
rthumb 18.4694 -65.1888
lclavicle 2.65818e-014 -7.95139e-015
lhumerus -29.4447 -41.7341 87.9576
lradius 119.026
lwrist 44.911
lhand -20.7652 -26.19
lfingers 7.12502
lthumb 5.60108 3.71596
rfemur 0 0 0
rtibia 0
rfoot 0 0
rtoes 0
lfemur -4.56264 -7.81221 -12.9706
ltibia 21.0108
lfoot -25.6647 17.7974
ltoes -53.4176
552
root -0.708371 18.7054 5.70448 2.96751 -3.45873 -1.63676
lowerback 1.99362 1.33408 -0.164455
upperback -1.87424 1.78327 0.290676
thorax -3.05591 0.896153 0.308136
lowerneck -8.15956 -2.68162 -0.515416
upperneck 24.0854 -4.56403 3.64128
head 8.96638 -1.82179 0.86437
rclavicle -2.12483e-014 7.35503e-015
rhumerus -29.4439 40.2905 -80.0891
rradius 119.671
rwrist -27.286
rhand -7.62318 -35.8413
rfingers 7.12502
rthumb 18.2714 -65.0032
lclavicle -2.12483e-014 7.35503e-015
lhumerus -29.4042 -41.7363 87.8919
lradius 119.387
lwrist 44.495
lhand -20.5855 -26.6458
lfingers 7.12502
lthumb 5.77456 3.25553
rfemur 0 0 0
rtibia 0
rfoot 0 0
rtoes 0
lfemur -4.58819 -7.78859 -12.9796
ltibia 21.0058
lfoot -25.6453 17.7956
ltoes -53.4638
553
root -0.709132 18.7054 5.70219 2.97722 -3.44065 -1.65839
lowerback 2.04442 1.33019 -0.170857
upperback -1.87085 1.77855 0.314959
thorax -3.08201 0.894207 0.335609
lowerneck -8.13101 -2.69703 -0.430843
upperneck 24.1519 -4.57493 3.52341
head 8.97942 -1.83064 0.809328
rclavicle -8.38565e-015 1.11319e-014
rhumerus -29.2698 40.3401 -79.8793
rradius 120.182
rwrist -27.083
rhand -7.63569 -35.5367
rfingers 7.12502
rthumb 18.2594 -64.6997
lclavicle -8.38565e-015 1.11319e-014
lhumerus -29.2951 -41.7601 87.7508
lradius 119.873
lwrist 43.7603
lhand -20.5953 -27.1559
lfingers 7.12502
lthumb 5.76507 2.74566
rfemur 0 0 0
rtibia 0
rfoot 0 0
rtoes 0
lfemur -4.6135 -7.80214 -12.9452
ltibia 21.013
lfoot -25.6552 17.8023
ltoes -53.447
554
root -0.709913 18.7046 5.70051 2.98185 -3.43732 -1.69834
lowerback 2.10479 1.32095 -0.171897
upperback -1.86402 1.76763 0.365768
thorax -3.11059 0.889363 0.38743
lowerneck -8.13284 -2.69553 -0.457356
upperneck 24.2574 -4.56462 3.48816
head 9.0158 -1.82992 0.802831
rclavicle 4.35288e-015 -1.59028e-015
rhumerus -29.1851 40.465 -79.7429
rradius 120.831
rwrist -26.5623
rhand -7.75112 -35.1836
rfingers 7.12502
rthumb 18.1483 -64.357
lclavicle 4.35288e-015 -1.59028e-015
lhumerus -29.1744 -41.8006 87.5605
lradius 120.515
lwrist 42.7345
lhand -20.7571 -27.8017
lfingers 7.12502
lthumb 5.6089 2.1041
rfemur 0 0 0
rtibia 0
rfoot 0 0
rtoes 0
lfemur -4.62332 -7.88386 -12.9036
ltibia 21.0226
lfoot -25.7024 17.8692
ltoes -53.46
555
root -0.711095 18.7044 5.69958 2.99395 -3.46917 -1.70019
lowerback 2.1382 1.31895 -0.223455
upperback -1.86397 1.76423 0.403617
thorax -3.13215 0.889268 0.454443
lowerneck -8.03728 -2.68842 -0.536092
upperneck 24.3044 -4.55325 3.53366
head 9.01677 -1.82754 0.834221
rclavicle -4.26145e-015 6.06293e-015
rhumerus -29.2046 40.6174 -79.768
rradius 121.607
rwrist -25.7025
rhand -8.16802 -34.7251
rfingers 7.12502
rthumb 17.7472 -63.9352
lclavicle -4.26145e-015 6.06293e-015
lhumerus -29.0658 -41.9128 87.3432
lradius 121.302
lwrist 41.3074
lhand -20.9246 -28.5674
lfingers 7.12502
lthumb 5.44713 1.34258
rfemur 0 0 0
rtibia 0
rfoot 0 0
rtoes 0
lfemur -4.63563 -7.92881 -12.9038
ltibia 21.0302
lfoot -25.7186 17.9457
ltoes -53.5416
556
root -0.712218 18.7047 5.69897 3.00695 -3.51366 -1.66157
lowerback 2.13966 1.32106 -0.309089
upperback -1.85675 1.76444 0.419454
thorax -3.12867 0.891452 0.518662
lowerneck -7.79661 -2.69578 -0.549655
upperneck 24.2438 -4.55229 3.5169
head 8.95032 -1.83447 0.834516
rclavicle -1.59661e-014 1.44119e-014
rhumerus -29.0334 40.7519 -79.632
rradius 122.497
rwrist -24.6246
rhand -8.77489 -34.1098
rfingers 7.12502
rthumb 17.1631 -63.3718
lclavicle -1.59661e-014 1.44119e-014
lhumerus -28.8487 -42.0092 87.0191
lradius 122.233
lwrist 39.8673
lhand -20.8862 -29.3358
lfingers 7.12502
lthumb 5.48424 0.573235
rfemur 0 0 0
rtibia 0
rfoot 0 0
rtoes 0
lfemur -4.64539 -7.91583 -12.9467
ltibia 21.0338
lfoot -25.7357 17.9602
ltoes -53.5322
